<svg id="Layer_1" data-name="Layer 1" xmlns="http://www.w3.org/2000/svg" viewBox="0 0 88.51 22.79"><defs><style>.cls-1{fill:#000;}.cls-2{fill:#000;}</style></defs><path class="cls-1" d="M25,4.56c0-.27,0-2.32-.05-2.49s-.13-.38-.56-.38h-.66c-.06,0-.09,0-.09-.07V1.31a.07.07,0,0,1,.08-.07c.13,0,.71,0,1.77,0s1.37,0,1.53,0a.07.07,0,0,1,.08.08v.29s0,.08-.09.08h-.53c-.23,0-.4.09-.4.32s0,2.62,0,2.76v.87c0,.11,0,2.74,0,2.86,0,.35.17.41.53.41H27s.09,0,.09.08v.3s0,.06-.1.06-.59,0-1.58,0-1.57,0-1.7,0-.09,0-.09-.06V9c0-.05,0-.07.09-.07h.64c.23,0,.47,0,.51-.33S25,6,25,5.36Z" transform="translate(-1.24 -1.1)"/><path class="cls-1" d="M32.05,8.71c0,.18.1.23.25.23h.36c.1,0,.12,0,.12.11v.18c0,.08,0,.12-.09.12s-.43,0-1.08,0-.94,0-1,0-.09,0-.09-.12V9.05c0-.08,0-.11.15-.11H31c.12,0,.21,0,.23-.26s0-.66,0-.95V6.23c0-.45,0-.78-.33-1A1.22,1.22,0,0,0,30.07,5a1.32,1.32,0,0,0-.92.45,1.09,1.09,0,0,0-.26.77V8.57c0,.31,0,.37.27.37h.29c.09,0,.11,0,.11.12v.19c0,.07,0,.1-.08.1s-.39,0-1,0-.94,0-1,0-.08,0-.08-.1v-.2c0-.07,0-.11.12-.11h.32c.15,0,.23,0,.23-.22V6.06a.7.7,0,0,0-.46-.67l-.09,0c-.08,0-.1-.06-.1-.1v0c0-.06,0-.1.11-.12l1-.54a.51.51,0,0,1,.21-.08c.05,0,.08,0,.09.13l.08.7h0a2.28,2.28,0,0,1,1.56-.83,1.67,1.67,0,0,1,1,.25,1.64,1.64,0,0,1,.63,1.08Z" transform="translate(-1.24 -1.1)"/><path class="cls-1" d="M33.17,9.13c-.06,0-.06-.11-.07-.16l-.19-1.08c0-.06,0-.08.07-.09l.14,0c.05,0,.08,0,.11.07l.28.56c.23.42.39.7,1,.7a.83.83,0,0,0,.9-.77c0-.51-.25-.81-1.11-1C33.62,7.08,33,6.73,33,5.83a1.5,1.5,0,0,1,1.59-1.38,2,2,0,0,1,1.05.24c.17.08.19.13.2.2l.17.8s0,.07-.08.1l-.13,0s-.07,0-.1,0l-.39-.53a.88.88,0,0,0-.79-.44.8.8,0,0,0-.88.75c0,.66.53.78,1.09.94C35.51,6.74,36,7.08,36,8a1.56,1.56,0,0,1-1.72,1.5A2.17,2.17,0,0,1,33.17,9.13Z" transform="translate(-1.24 -1.1)"/><path class="cls-1" d="M37.89,7.9c0,.85.39,1,.59,1a1.61,1.61,0,0,0,.75-.15.1.1,0,0,1,.14,0l.06.11a.09.09,0,0,1,0,.12,1.89,1.89,0,0,1-1.26.46,1.17,1.17,0,0,1-1.1-1c0-.47,0-1.47,0-1.62V6.62c0-.21,0-1,0-1.45h-.69c-.11,0-.17,0-.17-.13s.06-.13.2-.21A5,5,0,0,0,37.73,3.4a.16.16,0,0,1,.16-.11c.09,0,.12.08.12.17L38,4.58h1.58a.08.08,0,0,1,.08.11l-.11.39c0,.06,0,.09-.11.09H37.93c0,.53,0,1.07,0,1.59Z" transform="translate(-1.24 -1.1)"/><path class="cls-1" d="M40.68,6c0-.38-.07-.59-.64-.68-.07,0-.1,0-.1-.08v-.1s0-.06.08-.08a8.08,8.08,0,0,0,1.23-.56.52.52,0,0,1,.21-.06c.06,0,.07,0,.06.13s0,.91,0,1.85V7.67c0,.45,0,.85,0,1s.06.29.18.29h.52c.09,0,.12,0,.12.11v.19c0,.08,0,.11-.1.11s-.62,0-1.1,0c-.65,0-1.1,0-1.22,0s-.09,0-.09-.09V9c0-.07,0-.1.11-.1h.56c.12,0,.17,0,.18-.22,0-.34,0-.7,0-1Zm-.51-3.46A.63.63,0,0,1,40.86,2a.56.56,0,0,1,.59.56.61.61,0,0,1-.66.62A.64.64,0,0,1,40.17,2.55Z" transform="translate(-1.24 -1.1)"/><path class="cls-1" d="M43.78,7.9c0,.85.39,1,.59,1a1.67,1.67,0,0,0,.75-.15.11.11,0,0,1,.14,0l.05.11s0,.09,0,.12A1.92,1.92,0,0,1,44,9.46a1.16,1.16,0,0,1-1.1-1c0-.47,0-1.47,0-1.62V6.62c0-.21,0-1,0-1.45h-.7c-.1,0-.17,0-.17-.13s.07-.13.21-.21A5.12,5.12,0,0,0,43.62,3.4a.15.15,0,0,1,.16-.11c.09,0,.11.08.11.17l0,1.12h1.58a.08.08,0,0,1,.08.11l-.12.39c0,.06,0,.09-.1.09H43.81c0,.53,0,1.07,0,1.59Z" transform="translate(-1.24 -1.1)"/><path class="cls-1" d="M50,7c0,.55,0,1.11,0,1.34s.16.4.3.4a1.91,1.91,0,0,0,.37,0c.09,0,.13,0,.14,0l0,.15c0,.07,0,.09-.06.1l-1.19.4a.71.71,0,0,1-.23.05s-.09,0-.1-.14l-.09-.66h0a2.1,2.1,0,0,1-1.55.8,1.19,1.19,0,0,1-1.06-.53c-.47-.6-.45-1-.45-2.22V5.39c0-.32-.17-.4-.43-.43s-.25,0-.25-.08V4.67c0-.06,0-.09.13-.09h1l.16,0h.12a.12.12,0,0,1,.13.14c0,.1-.05.63-.05,1.3V6.8a2.9,2.9,0,0,0,.25,1.7.94.94,0,0,0,.91.43,1.57,1.57,0,0,0,1-.56.71.71,0,0,0,.11-.31V5.36c0-.32-.2-.38-.49-.4s-.25,0-.25-.08V4.69c0-.1,0-.11.14-.11H49.6l.2,0h.13a.1.1,0,0,1,.11.11A8.69,8.69,0,0,0,50,6.17Z" transform="translate(-1.24 -1.1)"/><path class="cls-1" d="M52.22,7.9c0,.85.38,1,.59,1a1.67,1.67,0,0,0,.75-.15.09.09,0,0,1,.13,0l.06.11a.09.09,0,0,1,0,.12,1.94,1.94,0,0,1-1.26.46,1.17,1.17,0,0,1-1.11-1c0-.47,0-1.47,0-1.62V6.62c0-.21,0-1,0-1.45h-.69c-.1,0-.17,0-.17-.13s.07-.13.2-.21a5,5,0,0,0,1.3-1.43.15.15,0,0,1,.16-.11c.09,0,.11.08.11.17l-.06,1.12h1.58a.08.08,0,0,1,.08.11l-.11.39a.1.1,0,0,1-.11.09H52.25c0,.53,0,1.07,0,1.59Z" transform="translate(-1.24 -1.1)"/><path class="cls-1" d="M54.68,6.3a3.22,3.22,0,0,0,0,.54,1.77,1.77,0,0,0,1.61,2A1.53,1.53,0,0,0,57.63,8a.11.11,0,0,1,.11,0l.14.08s.06,0,0,.17a2,2,0,0,1-1.8,1.24,2.1,2.1,0,0,1-1.79-.81,2.74,2.74,0,0,1-.5-1.79,2.57,2.57,0,0,1,.72-1.81,2.11,2.11,0,0,1,1.62-.6A1.69,1.69,0,0,1,57.8,6.12c0,.16-.13.18-.31.18ZM56.49,6c.21,0,.3-.06.3-.16,0-.26-.13-1-.87-1-.5,0-1,.33-1.19,1.17Z" transform="translate(-1.24 -1.1)"/><path class="cls-1" d="M61.4,5.13h-.78c-.06,0-.08,0-.06-.13l0-.34c0-.07,0-.08.13-.08h.66V4.37A3.38,3.38,0,0,1,62.16,2,2.46,2.46,0,0,1,64,1.11c.53,0,1,.2,1,.63a.54.54,0,0,1-.48.49.71.71,0,0,1-.32-.07A1.12,1.12,0,0,1,64,1.9a.61.61,0,0,0-.52-.26,1,1,0,0,0-.85.4,4.09,4.09,0,0,0-.4,2.32v.22h1.37a.08.08,0,0,1,.08.12l-.05.37s-.06.06-.15.06H62.22v1c0,1.34,0,2.38,0,2.51s.06.29.3.29h.64c.11,0,.13,0,.13.1v.18c0,.09,0,.13-.08.13s-.49,0-1.36,0c-.63,0-1.21,0-1.3,0s-.09,0-.09-.08V9s0-.08.12-.08h.54c.22,0,.26-.13.27-.39V5.13Z" transform="translate(-1.24 -1.1)"/><path class="cls-1" d="M64.19,8.67a2.37,2.37,0,0,1-.63-1.85,2.42,2.42,0,0,1,1-1.83,2.46,2.46,0,0,1,1.52-.54,2.42,2.42,0,0,1,1.59.66A2.51,2.51,0,0,1,68.42,7a2.6,2.6,0,0,1-2.51,2.5A2.28,2.28,0,0,1,64.19,8.67Zm3.28-1.83a2,2,0,0,0-1.5-2,1.13,1.13,0,0,0-.88.36,2.24,2.24,0,0,0-.6,1.78,2.46,2.46,0,0,0,.43,1.59,1.25,1.25,0,0,0,1.13.59C66.91,9.11,67.47,8.06,67.47,6.84Z" transform="translate(-1.24 -1.1)"/><path class="cls-1" d="M69.24,6.3c0-.58-.09-.69-.41-.86l-.22-.12c-.06,0-.09,0-.09-.08V5.17s0-.06.09-.1l1.13-.58a.37.37,0,0,1,.16,0c.07,0,.08.06.08.13l0,.79h0a1.91,1.91,0,0,1,1.36-1,.51.51,0,0,1,.58.5.55.55,0,0,1-.48.56.75.75,0,0,1-.33-.1.78.78,0,0,0-.37-.09.82.82,0,0,0-.67.48,1.19,1.19,0,0,0-.11.36V8.48c0,.35.08.46.31.46h.54c.07,0,.08,0,.08.11v.2c0,.07,0,.1-.06.1s-.59,0-1.2,0-1.18,0-1.25,0-.07,0-.07-.11V9.05c0-.08,0-.11.12-.11H69c.17,0,.25-.06.25-.21,0-.38,0-.77,0-1.36Z" transform="translate(-1.24 -1.1)"/><path class="cls-1" d="M2.59,19.93a4.56,4.56,0,0,1-1.22-3.18,4.33,4.33,0,0,1,1.16-3A4,4,0,0,1,5.37,12.6a4.67,4.67,0,0,1,2.29.62c.15.09.21.08.23,0L8,12.89c0-.07,0-.07.15-.07s.13,0,.13.19.22,1.88.28,2.2c0,.06,0,.1,0,.11l-.17,0c-.05,0-.08,0-.11-.09a4.35,4.35,0,0,0-.89-1.41,2.6,2.6,0,0,0-2-.88c-2,0-2.85,1.81-2.84,3.47A4.53,4.53,0,0,0,3.6,19.38a2.52,2.52,0,0,0,2.18.95,3.46,3.46,0,0,0,2.8-1.44c0-.06.06-.07.1,0l.14.12s.06,0,0,.1A4.09,4.09,0,0,1,5.46,21,3.92,3.92,0,0,1,2.59,19.93Z" transform="translate(-1.24 -1.1)"/><path class="cls-1" d="M10,17.79c0-.58-.09-.7-.41-.87l-.22-.11c-.07,0-.09,0-.09-.08v-.07s0-.07.09-.1L10.45,16a.34.34,0,0,1,.16,0c.06,0,.08.06.08.13l.05.79h0a1.91,1.91,0,0,1,1.36-1,.51.51,0,0,1,.58.5.54.54,0,0,1-.48.55.7.7,0,0,1-.33-.09.78.78,0,0,0-.37-.09.82.82,0,0,0-.67.48,1.22,1.22,0,0,0-.12.36V20c0,.35.08.46.32.46h.54c.06,0,.08,0,.08.11v.2c0,.07,0,.1-.06.1s-.59,0-1.2,0-1.19,0-1.25,0-.07,0-.07-.11v-.19c0-.08,0-.11.12-.11h.45c.17,0,.25-.07.25-.21,0-.38,0-.77,0-1.37Z" transform="translate(-1.24 -1.1)"/><path class="cls-1" d="M13.46,17.79a2.24,2.24,0,0,0,0,.54,1.78,1.78,0,0,0,1.61,2,1.53,1.53,0,0,0,1.38-.78.09.09,0,0,1,.1-.05l.15.08s.06,0,0,.17a2.12,2.12,0,0,1-3.59.43,2.7,2.7,0,0,1-.5-1.8,2.52,2.52,0,0,1,.72-1.8,2.08,2.08,0,0,1,1.62-.6,1.69,1.69,0,0,1,1.67,1.67c0,.15-.14.18-.32.18Zm1.8-.34c.22,0,.31-.06.31-.16,0-.26-.14-1-.88-1-.5,0-1,.33-1.19,1.17Z" transform="translate(-1.24 -1.1)"/><path class="cls-1" d="M20.35,19.46c0,.64.14.85.34.85a.54.54,0,0,0,.4-.17c0-.06.07-.08.11-.05l.11.09s.06.09,0,.21a.92.92,0,0,1-.88.55.84.84,0,0,1-.81-.76h0a2.18,2.18,0,0,1-1.8.76c-.27,0-.68-.22-.68-.94,0-.52.24-1,1.14-1.37A7.56,7.56,0,0,0,19.53,18v-.73a1.21,1.21,0,0,0-.16-.63.84.84,0,0,0-.68-.25,1.32,1.32,0,0,0-.74.23c-.16.15-.05.32-.05.53,0,.39-.14.64-.61.64-.18,0-.27-.1-.27-.36a1.45,1.45,0,0,1,.79-1.07,2.5,2.5,0,0,1,1.38-.39,1.15,1.15,0,0,1,.91.3,1,1,0,0,1,.25.81v2.41Zm-.83-1.15c-.41.31-1.52.53-1.52,1.48a.56.56,0,0,0,.59.62c.33,0,.93-.4.93-.7Z" transform="translate(-1.24 -1.1)"/><path class="cls-1" d="M22.75,19.39c0,.85.38,1,.59,1a1.67,1.67,0,0,0,.75-.15.09.09,0,0,1,.13,0l.06.1a.1.1,0,0,1,0,.13,2,2,0,0,1-1.26.45,1.16,1.16,0,0,1-1.11-1c0-.47,0-1.47,0-1.63V18.1c0-.2,0-1,0-1.44h-.69c-.1,0-.17,0-.17-.13s.07-.13.2-.21a5.15,5.15,0,0,0,1.3-1.43.15.15,0,0,1,.16-.11c.09,0,.11.08.11.17l-.06,1.12h1.58c.07,0,.1.06.08.1l-.11.4a.1.1,0,0,1-.11.09H22.78c0,.52,0,1.07,0,1.59Z" transform="translate(-1.24 -1.1)"/><path class="cls-1" d="M25.38,17.5c0-.38-.07-.59-.64-.68-.08,0-.1,0-.1-.08v-.1s0-.06.08-.08A9.8,9.8,0,0,0,26,16a.52.52,0,0,1,.21-.06c.06,0,.07.05.06.13s0,.91,0,1.85v1.24c0,.44,0,.85,0,1s.06.29.18.29h.52c.09,0,.12,0,.12.11v.19c0,.08,0,.11-.11.11s-.61,0-1.09,0c-.65,0-1.1,0-1.22,0s-.09,0-.09-.09v-.23c0-.06,0-.09.11-.09h.56c.12,0,.17,0,.18-.22,0-.34,0-.7,0-1ZM24.87,14a.63.63,0,0,1,.69-.59.56.56,0,0,1,.59.56.61.61,0,0,1-.66.62A.64.64,0,0,1,24.87,14Z" transform="translate(-1.24 -1.1)"/><path class="cls-1" d="M29.42,19.76h0c.18-.44,1-2.38,1.09-2.83s0-.48-.21-.48h-.22s-.05-.06-.05-.12v-.2c0-.07,0-.09.07-.09s.41,0,.91,0,.71,0,.81,0,.11,0,.11.1v.19c0,.08,0,.12-.06.12h-.22a.46.46,0,0,0-.35.12,11.8,11.8,0,0,0-.91,1.82c-.13.34-1,2.25-1,2.33s-.15.26-.27.26-.18-.1-.24-.24-.85-2.22-.89-2.31-.5-1.38-.57-1.56c-.15-.33-.27-.42-.47-.42h-.23s-.07-.05-.07-.12v-.2c0-.08,0-.09.13-.09s.32,0,.95,0,.9,0,1,0,.11,0,.11.09v.2c0,.07,0,.12-.08.12h-.23a.19.19,0,0,0-.2.21A8.83,8.83,0,0,0,28.74,18C28.81,18.22,29.3,19.52,29.42,19.76Z" transform="translate(-1.24 -1.1)"/><path class="cls-1" d="M32.5,17.79a3.22,3.22,0,0,0,0,.54,1.77,1.77,0,0,0,1.61,2,1.53,1.53,0,0,0,1.37-.78.11.11,0,0,1,.11-.05l.14.08s.06,0,0,.17a2,2,0,0,1-1.8,1.23,2.09,2.09,0,0,1-1.79-.8,2.75,2.75,0,0,1-.5-1.8,2.56,2.56,0,0,1,.72-1.8,2.11,2.11,0,0,1,1.62-.6,1.69,1.69,0,0,1,1.67,1.67c0,.15-.13.18-.31.18Zm1.81-.34c.21,0,.3-.06.3-.16,0-.26-.13-1-.87-1-.5,0-1,.33-1.19,1.17Z" transform="translate(-1.24 -1.1)"/><path class="cls-1" d="M40.87,13.18h-.28a8.73,8.73,0,0,0-1.8.13c-.51.16-.85,1-1,1.32a.08.08,0,0,1-.11.06l-.21-.06s-.07,0,0-.09c.11-.41.51-1.88.53-2s.07-.18.11-.18a.21.21,0,0,1,.14,0l.15.11a1,1,0,0,0,.65.19c.6,0,1.07.07,2.14.07h.55c1.24,0,1.72,0,2.28-.07a1.13,1.13,0,0,0,.59-.16l.22-.14a.24.24,0,0,1,.13,0c.06,0,.08,0,.11.18s.23,1.54.32,2c0,.06,0,.08-.06.09l-.19.05s-.05,0-.09-.08-.43-1.09-.8-1.27a6.86,6.86,0,0,0-2-.19h-.32v3.23c0,.16,0,3.34,0,3.53s.11.46.38.46H43c.1,0,.11,0,.11.11v.24c0,.06,0,.09-.11.09s-.48,0-1.59,0-1.57,0-1.73,0-.1,0-.1-.11v-.22c0-.08,0-.11.08-.11h.77a.36.36,0,0,0,.38-.27c0-.33,0-3.82,0-4Z" transform="translate(-1.24 -1.1)"/><path class="cls-1" d="M44.23,17.79a3.22,3.22,0,0,0,0,.54,1.77,1.77,0,0,0,1.61,2,1.53,1.53,0,0,0,1.37-.78.11.11,0,0,1,.11-.05l.14.08s.06,0,0,.17a2,2,0,0,1-1.8,1.23,2.1,2.1,0,0,1-1.79-.8,2.75,2.75,0,0,1-.49-1.8,2.55,2.55,0,0,1,.71-1.8,2.11,2.11,0,0,1,1.63-.6,1.68,1.68,0,0,1,1.66,1.67c0,.15-.13.18-.31.18ZM46,17.45c.21,0,.3-.06.3-.16,0-.26-.13-1-.87-1-.5,0-1,.33-1.19,1.17Z" transform="translate(-1.24 -1.1)"/><path class="cls-1" d="M48.67,18.06a3.2,3.2,0,0,0,.58,1.73,1.48,1.48,0,0,0,1.24.57,1.57,1.57,0,0,0,1.25-.48s0,0,.09,0l.11.11c.05.05.06.08,0,.15a2.63,2.63,0,0,1-1.83.8,2.07,2.07,0,0,1-1.76-.79,2.36,2.36,0,0,1-.51-1.55,2.54,2.54,0,0,1,2.43-2.66c1.18,0,1.55.68,1.55.92a.38.38,0,0,1-.42.39.71.71,0,0,1-.63-.45c-.25-.47-.49-.5-.76-.5C49.36,16.3,48.67,16.89,48.67,18.06Z" transform="translate(-1.24 -1.1)"/><path class="cls-1" d="M52.8,14.62c0-.69-.13-.82-.54-1l-.19-.06c-.07,0-.08,0-.08-.07v-.1s0-.06.13-.12l1.18-.62a.62.62,0,0,1,.27-.09c.06,0,.11.09.09.28s0,2.5,0,3.07v.72h.06a2.2,2.2,0,0,1,1.56-.73,1.48,1.48,0,0,1,1.12.45,2,2,0,0,1,.49,1.67v.65c0,.63,0,1.34,0,1.55s.18.17.42.17h.19c.1,0,.13,0,.13.11v.17c0,.09,0,.13-.09.13s-.44,0-1.09,0-1,0-1.07,0-.1,0-.1-.12v-.2c0-.05,0-.09.08-.09h.26c.19,0,.42,0,.43-.21s0-.76,0-1.13v-.92a1.8,1.8,0,0,0-.37-1.39,1,1,0,0,0-.75-.32,1.4,1.4,0,0,0-1.06.47,1,1,0,0,0-.23.56V20c0,.36,0,.46.25.46h.34c.08,0,.13,0,.13.09v.2c0,.08,0,.12-.09.12s-.56,0-1.08,0-1,0-1.1,0-.08,0-.08-.11v-.21c0-.08,0-.09.17-.09h.24c.18,0,.35,0,.37-.18s0-1.46,0-2.2Z" transform="translate(-1.24 -1.1)"/><path class="cls-1" d="M62,20.2c0,.18.1.23.25.23h.37c.1,0,.12,0,.12.11v.18c0,.08,0,.12-.09.12s-.43,0-1.08,0-.94,0-1,0-.09,0-.09-.12v-.18c0-.08,0-.11.15-.11h.32c.13,0,.22-.05.23-.26s0-.66,0-1v-1.5c0-.46,0-.79-.33-1a1.24,1.24,0,0,0-.83-.21,1.33,1.33,0,0,0-.92.44,1.11,1.11,0,0,0-.26.78v2.35c0,.3,0,.37.27.37h.28c.09,0,.12,0,.12.12v.19c0,.07,0,.1-.08.1s-.39,0-1,0-.94,0-1,0-.08,0-.08-.1v-.2c0-.07,0-.11.11-.11h.33c.15,0,.23,0,.23-.22V17.55a.69.69,0,0,0-.47-.67l-.09-.05c-.08,0-.09-.07-.09-.1v-.06c0-.05.05-.09.1-.11l1-.54a.53.53,0,0,1,.2-.08c.06,0,.08,0,.09.13l.08.69h0a2.29,2.29,0,0,1,1.55-.82,1.7,1.7,0,0,1,1,.25A1.63,1.63,0,0,1,62,17.26Z" transform="translate(-1.24 -1.1)"/><path class="cls-1" d="M63.29,20.16a2.37,2.37,0,0,1-.63-1.85,2.42,2.42,0,0,1,1-1.83,2.48,2.48,0,0,1,1.52-.54,2.39,2.39,0,0,1,1.59.65,2.55,2.55,0,0,1,.77,1.86A2.59,2.59,0,0,1,65,20.94,2.26,2.26,0,0,1,63.29,20.16Zm3.28-1.83a2,2,0,0,0-1.5-2,1.06,1.06,0,0,0-.87.36,2.2,2.2,0,0,0-.61,1.78A2.46,2.46,0,0,0,64,20a1.27,1.27,0,0,0,1.13.59C66,20.6,66.57,19.55,66.57,18.33Z" transform="translate(-1.24 -1.1)"/><path class="cls-1" d="M69.1,17.42c0,.59,0,2.31,0,2.66,0,.19.06.35.3.35h.51c.1,0,.12,0,.12.11v.19c0,.07,0,.11-.06.11s-.58,0-1.29,0-1.18,0-1.28,0-.08,0-.08-.11v-.19c0-.08,0-.11.15-.11H68c.13,0,.24-.08.25-.28s0-2.31,0-3v-.71c0-.81,0-1.84,0-2.14a.68.68,0,0,0-.57-.68l-.23-.08s-.06,0-.06-.05v-.09s0-.06.1-.08a11.71,11.71,0,0,0,1.33-.66.4.4,0,0,1,.24-.09c.08,0,.1.05.09.2,0,.63-.05,3-.05,3.61Z" transform="translate(-1.24 -1.1)"/><path class="cls-1" d="M70.38,20.16a2.54,2.54,0,0,1,.36-3.68,2.46,2.46,0,0,1,1.52-.54,2.41,2.41,0,0,1,1.59.65,2.55,2.55,0,0,1,.77,1.86,2.59,2.59,0,0,1-2.51,2.49A2.3,2.3,0,0,1,70.38,20.16Zm3.29-1.83a2,2,0,0,0-1.5-2,1.09,1.09,0,0,0-.88.36,2.23,2.23,0,0,0-.6,1.78A2.46,2.46,0,0,0,71.12,20a1.25,1.25,0,0,0,1.13.59C73.11,20.6,73.67,19.55,73.67,18.33Z" transform="translate(-1.24 -1.1)"/><path class="cls-1" d="M75.18,23.53a1,1,0,0,1-.58-.92c0-.63.64-1.12,1.19-1.36v0a.89.89,0,0,1-.76-.8c0-.54.62-.93,1-1.08v0A1.82,1.82,0,0,1,75,17.58a1.79,1.79,0,0,1,2-1.64,1.86,1.86,0,0,1,1.43.65,2,2,0,0,1,1.06-.44c.38,0,.56.25.54.48a.43.43,0,0,1-.44.42.55.55,0,0,1-.4-.17.43.43,0,0,0-.24-.1.89.89,0,0,0-.36.06,2.19,2.19,0,0,1,.17.87,1.89,1.89,0,0,1-.42,1.22A2.14,2.14,0,0,1,77,19.5a2.4,2.4,0,0,1-.58-.05c-.23.09-.6.31-.6.63,0,.47.57.43,1.33.39a2.69,2.69,0,0,1,2,.41A1.32,1.32,0,0,1,79.62,22a1.63,1.63,0,0,1-.76,1.39,3.41,3.41,0,0,1-2,.54A3.5,3.5,0,0,1,75.18,23.53Zm3.74-1.17c0-.67-.51-1.18-1.64-1.1l-1.09.08a1.22,1.22,0,0,0-.91,1.09,1.08,1.08,0,0,0,.44.79,2.58,2.58,0,0,0,1.59.31C77.73,23.53,79,23.24,78.92,22.36Zm-1-4.83a1.41,1.41,0,0,0-.31-1,.89.89,0,0,0-.54-.25,1,1,0,0,0-.81.32,1.9,1.9,0,0,0-.41,1.34,1.45,1.45,0,0,0,.36,1,1,1,0,0,0,.69.28C77.62,19.18,77.87,18.24,77.87,17.53Z" transform="translate(-1.24 -1.1)"/><path class="cls-1" d="M80.75,17.5c0-.38-.07-.59-.63-.68-.08,0-.11,0-.11-.08v-.1s0-.06.08-.08A9.19,9.19,0,0,0,81.32,16a.52.52,0,0,1,.21-.06c.06,0,.07.05.06.13s0,.91,0,1.85v1.24c0,.44,0,.85,0,1s.06.29.18.29h.52c.1,0,.12,0,.12.11v.19c0,.08,0,.11-.1.11s-.62,0-1.09,0c-.66,0-1.11,0-1.23,0s-.09,0-.09-.09v-.23c0-.06,0-.09.11-.09h.56c.12,0,.17,0,.18-.22,0-.34,0-.7,0-1ZM80.24,14a.63.63,0,0,1,.69-.59.56.56,0,0,1,.59.56.61.61,0,0,1-.66.62A.64.64,0,0,1,80.24,14Z" transform="translate(-1.24 -1.1)"/><path class="cls-1" d="M83.07,17.79a2.24,2.24,0,0,0,0,.54,1.78,1.78,0,0,0,1.62,2A1.53,1.53,0,0,0,86,19.51a.09.09,0,0,1,.1-.05l.15.08s.06,0,0,.17a2,2,0,0,1-1.81,1.23,2.08,2.08,0,0,1-1.78-.8,2.7,2.7,0,0,1-.5-1.8,2.56,2.56,0,0,1,.72-1.8,2.09,2.09,0,0,1,1.62-.6,1.69,1.69,0,0,1,1.67,1.67c0,.15-.14.18-.32.18Zm1.8-.34c.22,0,.31-.06.31-.16,0-.26-.14-1-.87-1-.5,0-1,.33-1.2,1.17Z" transform="translate(-1.24 -1.1)"/><path class="cls-1" d="M86.88,20.61s0-.1-.06-.15l-.2-1.08c0-.06,0-.08.07-.09l.15,0s.08,0,.1.07l.28.56c.23.42.39.7,1,.7a.83.83,0,0,0,.9-.77c0-.51-.25-.81-1.1-1-.67-.19-1.34-.54-1.34-1.44a1.5,1.5,0,0,1,1.59-1.38,2.14,2.14,0,0,1,1,.23c.17.08.2.14.21.21l.17.79s0,.08-.08.11l-.14,0s-.07,0-.1-.06L89,16.74a.86.86,0,0,0-.79-.44.81.81,0,0,0-.88.75c0,.66.54.78,1.09.94.83.24,1.35.58,1.37,1.46A1.57,1.57,0,0,1,88,20.94,2.08,2.08,0,0,1,86.88,20.61Z" transform="translate(-1.24 -1.1)"/><path class="cls-2" d="M2.26,2.28c0-.39-.1-.58-.4-.58H1.34c-.07,0-.1,0-.1-.1V1.33c0-.06,0-.09.12-.09s.67,0,1.77,0,1.52,0,1.66,0,.09,0,.09.08v.29c0,.07,0,.09-.09.09H4.3a.51.51,0,0,0-.56.45c0,.14,0,.83,0,1.5V5.07c0,.58,0,1.4,0,1.77a2.78,2.78,0,0,0,.4,1.42A1.91,1.91,0,0,0,5.71,9a2.4,2.4,0,0,0,1.54-.56,2.64,2.64,0,0,0,.67-1.94V4.41a19.52,19.52,0,0,0-.13-2.2.51.51,0,0,0-.47-.51H6.91c-.07,0-.1,0-.1-.08V1.33c0-.06,0-.09.1-.09s.64,0,1.4,0,1.08,0,1.17,0,.12,0,.12.09V1.6c0,.07,0,.1-.07.1H9.11a.45.45,0,0,0-.48.45c0,.14,0,1.75,0,1.9s0,2.16-.07,2.62a3,3,0,0,1-1,2.21,3.08,3.08,0,0,1-2.09.72,4.63,4.63,0,0,1-1.66-.28A2.31,2.31,0,0,1,2.46,7.78,10.41,10.41,0,0,1,2.26,5Z" transform="translate(-1.24 -1.1)"/><path class="cls-2" d="M9.92,6.86c.05,0,.07,0,.07.09a2.63,2.63,0,0,0,.44,1.31A1.78,1.78,0,0,0,12,9.09a1.4,1.4,0,0,0,1.49-1.35c0-1-.48-1.4-1.7-1.86a5.39,5.39,0,0,1-1.68-1,2.17,2.17,0,0,1-.58-1.64,1.94,1.94,0,0,1,.81-1.61,2.32,2.32,0,0,1,1.63-.56,3.64,3.64,0,0,1,1.45.28.2.2,0,0,0,.24,0l.16-.15a.19.19,0,0,1,.16-.07c.06,0,.09.07.09.18s.18,1.8.18,1.91,0,.07-.07.08L14,3.36s-.09,0-.12-.07a3.32,3.32,0,0,0-.71-1.22,1.52,1.52,0,0,0-1.2-.48,1.23,1.23,0,0,0-1.29,1.16,1.4,1.4,0,0,0,.33,1,4,4,0,0,0,1.4.71A3.67,3.67,0,0,1,14,5.4,2.19,2.19,0,0,1,14.59,7,2.4,2.4,0,0,1,12.15,9.6a3,3,0,0,1-2-.56.58.58,0,0,0-.28-.13c-.07,0-.11.09-.18.2s-.12.14-.21.14-.14-.07-.14-.18.19-2,.21-2.14,0-.09.07-.09Z" transform="translate(-1.24 -1.1)"/><path class="cls-2" d="M22.46,7.55a.08.08,0,0,1,0,.11A4.3,4.3,0,0,1,16,8.52,4.4,4.4,0,0,1,14.8,5.41,4.51,4.51,0,0,1,16,2.32,4,4,0,0,1,19,1.1a5,5,0,0,1,2.32.56c.16.09.21.09.23,0l.09-.3c0-.07.05-.07.19-.07s.16,0,.16.18.23,2.05.27,2.4c0,.06,0,.1,0,.11L22,4.05c-.06,0-.09,0-.13-.12A4.17,4.17,0,0,0,21,2.44a2.78,2.78,0,0,0-2-.85c-1.84,0-2.6,1.65-2.6,3.31a4.65,4.65,0,0,0,1.06,3,2.47,2.47,0,0,0,2,.9,3.35,3.35,0,0,0,2.75-1.33c.06-.08.1-.12.14-.08Z" transform="translate(-1.24 -1.1)"/></svg>